<?xml version="1.0" encoding="UTF-8" standalone="no"?>
<svg
   xmlns:dc="http://purl.org/dc/elements/1.1/"
   xmlns:cc="http://creativecommons.org/ns#"
   xmlns:rdf="http://www.w3.org/1999/02/22-rdf-syntax-ns#"
   xmlns:svg="http://www.w3.org/2000/svg"
   xmlns="http://www.w3.org/2000/svg"
   id="svg8"
   version="1.1"
   viewBox="0 0 98 96"
   height="96mm"
   width="98mm">
  <defs
     id="defs2" />
  <metadata
     id="metadata5">
    <rdf:RDF>
      <cc:Work
         rdf:about="">
        <dc:format>image/svg+xml</dc:format>
        <dc:type
           rdf:resource="http://purl.org/dc/dcmitype/StillImage" />
        <dc:title></dc:title>
      </cc:Work>
    </rdf:RDF>
  </metadata>
  <g
     transform="translate(0,-201)"
     id="layer1">
    <g
       transform="translate(-26.150586,111.52513)"
       id="g4657">
      <path
         id="path4610"
         d="m 40.81077,95.92841 a 8.0008,8.0008 0 0 0 -7.38868,11.09765 l 27.0254,66.9961 a 8.0008,8.0008 0 0 0 14.83789,0 l 27.02539,-66.9961 A 8.0008,8.0008 0 1 0 87.47288,101.04169 L 67.86545,149.6452 48.25999,101.04169 a 8.0008,8.0008 0 0 0 -7.44922,-5.11328 z"
         style="color:#000000;font-style:normal;font-variant:normal;font-weight:normal;font-stretch:normal;font-size:medium;line-height:normal;font-family:sans-serif;font-variant-ligatures:normal;font-variant-position:normal;font-variant-caps:normal;font-variant-numeric:normal;font-variant-alternates:normal;font-feature-settings:normal;text-indent:0;text-align:start;text-decoration:none;text-decoration-line:none;text-decoration-style:solid;text-decoration-color:#000000;letter-spacing:normal;word-spacing:normal;text-transform:none;writing-mode:lr-tb;direction:ltr;text-orientation:mixed;dominant-baseline:auto;baseline-shift:baseline;text-anchor:start;white-space:normal;shape-padding:0;clip-rule:nonzero;display:inline;overflow:visible;visibility:visible;opacity:1;isolation:auto;mix-blend-mode:normal;color-interpolation:sRGB;color-interpolation-filters:linearRGB;solid-color:#000000;solid-opacity:1;vector-effect:none;fill:#272727;fill-opacity:1;fill-rule:nonzero;stroke:#2b2b2b;stroke-width:12;stroke-linecap:round;stroke-linejoin:round;stroke-miterlimit:4;stroke-dasharray:none;stroke-dashoffset:0;stroke-opacity:1;paint-order:normal;color-rendering:auto;image-rendering:auto;shape-rendering:auto;text-rendering:auto;enable-background:accumulate" />
      <path
         style="color:#000000;font-style:normal;font-variant:normal;font-weight:normal;font-stretch:normal;font-size:medium;line-height:normal;font-family:sans-serif;font-variant-ligatures:normal;font-variant-position:normal;font-variant-caps:normal;font-variant-numeric:normal;font-variant-alternates:normal;font-feature-settings:normal;text-indent:0;text-align:start;text-decoration:none;text-decoration-line:none;text-decoration-style:solid;text-decoration-color:#000000;letter-spacing:normal;word-spacing:normal;text-transform:none;writing-mode:lr-tb;direction:ltr;text-orientation:mixed;dominant-baseline:auto;baseline-shift:baseline;text-anchor:start;white-space:normal;shape-padding:0;clip-rule:nonzero;display:inline;overflow:visible;visibility:visible;opacity:1;isolation:auto;mix-blend-mode:normal;color-interpolation:sRGB;color-interpolation-filters:linearRGB;solid-color:#000000;solid-opacity:1;vector-effect:none;fill:#272727;fill-opacity:1;fill-rule:nonzero;stroke:#2b2b2b;stroke-width:12;stroke-linecap:round;stroke-linejoin:miter;stroke-miterlimit:4;stroke-dasharray:none;stroke-dashoffset:0;stroke-opacity:1;color-rendering:auto;image-rendering:auto;shape-rendering:auto;text-rendering:auto;enable-background:accumulate"
         d="m 101.87026,116.70099 c -7.1384,0.0305 -14.16752,3.11085 -19.00586,8.87695 -7.74134,9.22577 -7.74134,22.784 0,32.00977 7.74134,9.22577 21.0916,11.58028 31.52148,5.55859 a 6.0006,6.0006 0 1 0 -6,-10.39258 c -5.45557,3.14978 -12.2808,1.94684 -16.33007,-2.8789 -4.04928,-4.82574 -4.04928,-11.7563 0,-16.58203 4.04927,-4.82574 10.8745,-6.03064 16.33007,-2.88086 a 6.0006,6.0006 0 1 0 6,-10.39063 c -3.9112,-2.25813 -8.23258,-3.33858 -12.51562,-3.32031 z"
         id="path4612" />
      <path
         style="color:#000000;font-style:normal;font-variant:normal;font-weight:normal;font-stretch:normal;font-size:medium;line-height:normal;font-family:sans-serif;font-variant-ligatures:normal;font-variant-position:normal;font-variant-caps:normal;font-variant-numeric:normal;font-variant-alternates:normal;font-feature-settings:normal;text-indent:0;text-align:start;text-decoration:none;text-decoration-line:none;text-decoration-style:solid;text-decoration-color:#000000;letter-spacing:normal;word-spacing:normal;text-transform:none;writing-mode:lr-tb;direction:ltr;text-orientation:mixed;dominant-baseline:auto;baseline-shift:baseline;text-anchor:start;white-space:normal;shape-padding:0;clip-rule:nonzero;display:inline;overflow:visible;visibility:visible;opacity:1;isolation:auto;mix-blend-mode:normal;color-interpolation:sRGB;color-interpolation-filters:linearRGB;solid-color:#000000;solid-opacity:1;vector-effect:none;fill:#0066e7;fill-opacity:1;fill-rule:nonzero;stroke:none;stroke-width:16;stroke-linecap:round;stroke-linejoin:round;stroke-miterlimit:4;stroke-dasharray:none;stroke-dashoffset:0;stroke-opacity:1;paint-order:normal;color-rendering:auto;image-rendering:auto;shape-rendering:auto;text-rendering:auto;enable-background:accumulate"
         d="m 94.71394,95.90895 a 8.0007999,8.0007999 0 0 0 -7.24091,5.1325 l -8.35763,20.7176 a 29.64729,30.504886 0 0 1 21.54442,-10.64069 l 1.65107,-4.09226 A 8.0007999,8.0007999 0 0 0 94.71394,95.90895 Z m -53.90317,0.0196 a 8.0007999,8.0007999 0 0 0 -7.3887,11.09751 l 27.02574,66.99591 a 8.0007999,8.0007999 0 0 0 14.83785,0 l 4.69223,-11.63185 a 29.64729,30.504886 0 0 1 -7.99538,-20.80235 29.64729,30.504886 0 0 1 0.11885,-2.44326 l -4.23591,10.50065 -19.60501,-48.60375 a 8.0007999,8.0007999 0 0 0 -7.44967,-5.11286 z"
         id="path4540" />
      <path
         id="path4544"
         style="fill:none;stroke:#e70099;stroke-width:12;stroke-linecap:round;stroke-miterlimit:4;stroke-dasharray:none;stroke-opacity:1"
         d="m 111.38703,157.95028 a 18.898809,18.898809 0 0 1 -23.926729,-4.21893 18.898809,18.898809 0 0 1 10e-7,-24.29584 18.898809,18.898809 0 0 1 23.926738,-4.21892" />
    </g>
  </g>
</svg>
