<?xml version="1.0" encoding="UTF-8" standalone="no"?>
<svg
   xmlns:dc="http://purl.org/dc/elements/1.1/"
   xmlns:cc="http://creativecommons.org/ns#"
   xmlns:rdf="http://www.w3.org/1999/02/22-rdf-syntax-ns#"
   xmlns:svg="http://www.w3.org/2000/svg"
   xmlns="http://www.w3.org/2000/svg"
   xmlns:sodipodi="http://sodipodi.sourceforge.net/DTD/sodipodi-0.dtd"
   xmlns:inkscape="http://www.inkscape.org/namespaces/inkscape"
   id="svg8"
   version="1.1"
   viewBox="0 0 98 96"
   height="96mm"
   width="98mm"
   sodipodi:docname="village-coding-logo.svg"
   inkscape:version="0.92.2 (unknown)">
  <sodipodi:namedview
     pagecolor="#ffffff"
     bordercolor="#666666"
     borderopacity="1"
     objecttolerance="10"
     gridtolerance="10"
     guidetolerance="10"
     inkscape:pageopacity="0"
     inkscape:pageshadow="2"
     inkscape:window-width="1250"
     inkscape:window-height="783"
     id="namedview11"
     showgrid="false"
     inkscape:zoom="0.65043403"
     inkscape:cx="185.19685"
     inkscape:cy="181.41732"
     inkscape:window-x="0"
     inkscape:window-y="30"
     inkscape:window-maximized="0"
     inkscape:current-layer="svg8" />
  <defs
     id="defs2" />
  <metadata
     id="metadata5">
    <rdf:RDF>
      <cc:Work
         rdf:about="">
        <dc:format>image/svg+xml</dc:format>
        <dc:type
           rdf:resource="http://purl.org/dc/dcmitype/StillImage" />
        <dc:title />
      </cc:Work>
    </rdf:RDF>
  </metadata>
  <path
     id="path4610"
     d="m 14.660184,6.45354 a 8.0008,8.0008 0 0 0 -7.38868,11.09765 l 27.0254,66.9961 a 8.0008,8.0008 0 0 0 14.83789,0 l 27.02539,-66.9961 A 8.0008,8.0008 0 1 0 61.322294,11.56682 L 41.714864,60.17033 22.109404,11.56682 a 8.0008,8.0008 0 0 0 -7.44922,-5.11328 z"
     style="color:#000000;font-style:normal;font-variant:normal;font-weight:normal;font-stretch:normal;font-size:medium;line-height:normal;font-family:sans-serif;font-variant-ligatures:normal;font-variant-position:normal;font-variant-caps:normal;font-variant-numeric:normal;font-variant-alternates:normal;font-feature-settings:normal;text-indent:0;text-align:start;text-decoration:none;text-decoration-line:none;text-decoration-style:solid;text-decoration-color:#000000;letter-spacing:normal;word-spacing:normal;text-transform:none;writing-mode:lr-tb;direction:ltr;text-orientation:mixed;dominant-baseline:auto;baseline-shift:baseline;text-anchor:start;white-space:normal;shape-padding:0;clip-rule:nonzero;display:inline;overflow:visible;visibility:visible;opacity:1;isolation:auto;mix-blend-mode:normal;color-interpolation:sRGB;color-interpolation-filters:linearRGB;solid-color:#000000;solid-opacity:1;vector-effect:none;fill:#272727;fill-opacity:1;fill-rule:nonzero;stroke:#2b2b2b;stroke-width:12;stroke-linecap:round;stroke-linejoin:round;stroke-miterlimit:4;stroke-dasharray:none;stroke-dashoffset:0;stroke-opacity:1;paint-order:normal;color-rendering:auto;image-rendering:auto;shape-rendering:auto;text-rendering:auto;enable-background:accumulate"
     inkscape:connector-curvature="0" />
  <path
     style="color:#000000;font-style:normal;font-variant:normal;font-weight:normal;font-stretch:normal;font-size:medium;line-height:normal;font-family:sans-serif;font-variant-ligatures:normal;font-variant-position:normal;font-variant-caps:normal;font-variant-numeric:normal;font-variant-alternates:normal;font-feature-settings:normal;text-indent:0;text-align:start;text-decoration:none;text-decoration-line:none;text-decoration-style:solid;text-decoration-color:#000000;letter-spacing:normal;word-spacing:normal;text-transform:none;writing-mode:lr-tb;direction:ltr;text-orientation:mixed;dominant-baseline:auto;baseline-shift:baseline;text-anchor:start;white-space:normal;shape-padding:0;clip-rule:nonzero;display:inline;overflow:visible;visibility:visible;opacity:1;isolation:auto;mix-blend-mode:normal;color-interpolation:sRGB;color-interpolation-filters:linearRGB;solid-color:#000000;solid-opacity:1;vector-effect:none;fill:#272727;fill-opacity:1;fill-rule:nonzero;stroke:#2b2b2b;stroke-width:12;stroke-linecap:round;stroke-linejoin:miter;stroke-miterlimit:4;stroke-dasharray:none;stroke-dashoffset:0;stroke-opacity:1;color-rendering:auto;image-rendering:auto;shape-rendering:auto;text-rendering:auto;enable-background:accumulate"
     d="m 75.719674,27.22612 c -7.1384,0.0305 -14.16752,3.11085 -19.00586,8.87695 -7.74134,9.22577 -7.74134,22.784 0,32.00977 7.74134,9.22577 21.0916,11.58028 31.52148,5.55859 a 6.0006,6.0006 0 1 0 -6,-10.39258 c -5.45557,3.14978 -12.2808,1.94684 -16.33007,-2.8789 -4.04928,-4.82574 -4.04928,-11.7563 0,-16.58203 4.04927,-4.82574 10.8745,-6.03064 16.33007,-2.88086 a 6.0006,6.0006 0 1 0 6,-10.39063 c -3.9112,-2.25813 -8.23258,-3.33858 -12.51562,-3.32031 z"
     id="path4612"
     inkscape:connector-curvature="0" />
  <path
     style="color:#000000;font-style:normal;font-variant:normal;font-weight:normal;font-stretch:normal;font-size:medium;line-height:normal;font-family:sans-serif;font-variant-ligatures:normal;font-variant-position:normal;font-variant-caps:normal;font-variant-numeric:normal;font-variant-alternates:normal;font-feature-settings:normal;text-indent:0;text-align:start;text-decoration:none;text-decoration-line:none;text-decoration-style:solid;text-decoration-color:#000000;letter-spacing:normal;word-spacing:normal;text-transform:none;writing-mode:lr-tb;direction:ltr;text-orientation:mixed;dominant-baseline:auto;baseline-shift:baseline;text-anchor:start;white-space:normal;shape-padding:0;clip-rule:nonzero;display:inline;overflow:visible;visibility:visible;opacity:1;isolation:auto;mix-blend-mode:normal;color-interpolation:sRGB;color-interpolation-filters:linearRGB;solid-color:#000000;solid-opacity:1;vector-effect:none;fill:#2484ff;fill-opacity:1;fill-rule:nonzero;stroke:none;stroke-width:16;stroke-linecap:round;stroke-linejoin:round;stroke-miterlimit:4;stroke-dasharray:none;stroke-dashoffset:0;stroke-opacity:1;paint-order:normal;color-rendering:auto;image-rendering:auto;shape-rendering:auto;text-rendering:auto;enable-background:accumulate"
     d="m 68.563354,6.43408 a 8.0007999,8.0007999 0 0 0 -7.24091,5.1325 l -8.35763,20.7176 a 29.64729,30.504886 0 0 1 21.54442,-10.64069 l 1.65107,-4.09226 A 8.0007999,8.0007999 0 0 0 68.563354,6.43408 Z m -53.90317,0.0196 a 8.0007999,8.0007999 0 0 0 -7.3887,11.09751 l 27.02574,66.99591 a 8.0007999,8.0007999 0 0 0 14.83785,0 l 4.69223,-11.63185 a 29.64729,30.504886 0 0 1 -7.99538,-20.80235 29.64729,30.504886 0 0 1 0.11885,-2.44326 l -4.23591,10.50065 -19.60501,-48.60375 a 8.0007999,8.0007999 0 0 0 -7.44967,-5.11286 z"
     id="path4540"
     inkscape:connector-curvature="0" />
  <path
     id="path4544"
     style="fill:none;stroke:#ff9d32;stroke-width:12;stroke-linecap:round;stroke-miterlimit:4;stroke-dasharray:none;stroke-opacity:1"
     d="m 85.236444,68.47541 a 18.898809,18.898809 0 0 1 -23.926729,-4.21893 18.898809,18.898809 0 0 1 1e-6,-24.29584 18.898809,18.898809 0 0 1 23.926738,-4.21892"
     inkscape:connector-curvature="0" />
</svg>
